<svg version="1.1" id="Layer_1" xmlns="http://www.w3.org/2000/svg" xmlns:xlink="http://www.w3.org/1999/xlink" x="0px" y="0px"
	 width="100%" viewBox="0 0 180 59" enable-background="new 0 0 180 59" xml:space="preserve">
<path fill="#FCFDFD" opacity="1.000000" stroke="none" 
	d="
M126.000000,60.000000 
	C84.000008,60.000000 42.500019,60.000000 1.000022,60.000000 
	C1.000015,40.333347 1.000015,20.666697 1.000007,1.000033 
	C60.999969,1.000022 120.999939,1.000022 180.999939,1.000011 
	C180.999954,20.666634 180.999954,40.333267 180.999969,59.999950 
	C162.833328,60.000000 144.666672,60.000000 126.000000,60.000000 
M105.165199,17.645906 
	C106.081146,17.435862 106.997101,17.225819 108.493088,16.581100 
	C109.239120,12.668478 106.383362,14.378277 104.072174,14.163083 
	C103.286324,14.513285 102.500465,14.863485 101.714615,15.213684 
	C102.803886,15.818497 103.893150,16.423309 105.001839,17.002325 
	C105.001839,17.002325 104.977303,17.020039 105.165199,17.645906 
M105.990479,24.360769 
	C105.282799,24.231152 104.575127,24.101532 103.595329,23.366283 
	C100.571281,20.003994 96.679764,21.398424 94.165497,23.081707 
	C91.161453,25.092886 88.264397,28.121592 89.026970,32.804359 
	C89.705109,36.968727 92.740623,38.008076 96.008110,39.797241 
	C97.731789,43.461388 99.795242,42.841152 102.728485,40.043476 
	C103.798355,40.330563 104.906044,40.938026 105.927795,40.817432 
	C107.017418,40.688828 108.929817,39.871368 108.929413,39.355873 
	C108.925476,34.372570 110.437569,29.003008 105.990479,24.360769 
M58.025505,32.773712 
	C55.745743,25.926235 51.896027,20.236668 45.605862,16.489195 
	C41.582150,14.092002 37.263943,12.820767 32.877365,15.475643 
	C28.349796,18.215845 27.313286,22.785185 27.545710,27.617273 
	C27.877462,34.514515 30.699619,40.469994 35.274204,45.583824 
	C40.953850,51.932976 48.208714,54.397274 53.313465,51.800659 
	C58.616730,49.103069 60.381130,42.572308 58.025505,32.773712 
M51.159966,10.795490 
	C50.158188,11.087805 49.156406,11.380119 48.154629,11.672433 
	C48.857132,12.823009 49.341633,14.210886 50.295834,15.087481 
	C59.917278,23.926390 64.785759,34.308628 61.250793,47.573341 
	C61.159401,47.916302 61.588474,48.397961 61.771610,48.807758 
	C66.937294,46.868103 70.916763,39.368519 70.518890,32.512314 
	C69.918625,22.168652 62.044807,12.963236 51.159966,10.795490 
M131.761414,37.768650 
	C135.276932,41.239906 144.497772,42.917973 148.094772,40.544899 
	C148.865555,40.036373 149.319366,38.689487 149.460083,37.665707 
	C149.684692,36.031849 149.517136,34.345051 149.528305,32.680721 
	C149.561676,27.702494 147.507874,23.889496 142.792786,22.116592 
	C138.497406,20.501499 134.630875,21.707884 131.750427,25.325655 
	C128.724014,29.126783 129.011871,33.194096 131.761414,37.768650 
M125.726128,40.486156 
	C126.046951,38.905987 130.788651,37.959579 126.261826,35.629250 
	C124.677490,36.605816 123.019211,37.627964 121.381325,38.637539 
	C120.226944,37.950729 119.027924,37.390610 118.007179,36.600258 
	C115.345520,34.539375 114.153000,31.909882 115.957703,28.760178 
	C117.656685,25.794985 120.254112,24.937513 123.638245,25.900875 
	C125.048134,26.302229 126.679283,25.926348 128.209824,25.903887 
	C126.976913,24.608511 125.762009,22.249357 124.507553,22.228130 
	C121.420227,22.175886 117.767456,22.369972 115.338860,23.974108 
	C111.222122,26.693293 110.407234,32.209251 112.412453,36.178909 
	C114.680061,40.668015 118.920235,42.235546 125.726128,40.486156 
M73.818176,31.942913 
	C74.491646,31.433561 75.581329,31.047646 75.774612,30.395889 
	C77.851761,23.391853 72.415749,12.842906 65.444176,10.358842 
	C64.415573,9.992338 63.143948,10.307916 60.399288,10.307916 
	C68.143608,16.394583 72.562737,22.916258 73.818176,31.942913 
M83.144936,26.889612 
	C83.144264,30.515724 82.956276,34.156704 83.242249,37.760063 
	C83.345413,39.059925 84.586357,40.269485 85.308090,41.520252 
	C85.901649,40.334511 86.939766,39.173370 87.006996,37.958500 
	C87.225227,34.015015 87.254158,30.041222 87.002625,26.101662 
	C86.906593,24.597813 85.854225,23.155024 85.237686,21.684408 
	C84.539909,23.125948 83.842125,24.567486 83.144936,26.889612 
z"/>
<path fill="#04B5BD" opacity="1.000000" stroke="none" 
	d="
M58.131538,33.174133 
	C60.381130,42.572308 58.616730,49.103069 53.313465,51.800659 
	C48.208714,54.397274 40.953850,51.932976 35.274204,45.583824 
	C30.699619,40.469994 27.877462,34.514515 27.545710,27.617273 
	C27.313286,22.785185 28.349796,18.215845 32.877365,15.475643 
	C37.263943,12.820767 41.582150,14.092002 45.605862,16.489195 
	C51.896027,20.236668 55.745743,25.926235 58.131538,33.174133 
z"/>
<path fill="#0AB4BC" opacity="1.000000" stroke="none" 
	d="
M51.490639,10.724077 
	C62.044807,12.963236 69.918625,22.168652 70.518890,32.512314 
	C70.916763,39.368519 66.937294,46.868103 61.771610,48.807758 
	C61.588474,48.397961 61.159401,47.916302 61.250793,47.573341 
	C64.785759,34.308628 59.917278,23.926390 50.295834,15.087481 
	C49.341633,14.210886 48.857132,12.823009 48.154629,11.672434 
	C49.156406,11.380119 50.158188,11.087805 51.490639,10.724077 
z"/>
<path fill="#586164" opacity="1.000000" stroke="none" 
	d="
M131.480042,37.531136 
	C129.011871,33.194096 128.724014,29.126783 131.750427,25.325655 
	C134.630875,21.707884 138.497406,20.501499 142.792786,22.116592 
	C147.507874,23.889496 149.561676,27.702494 149.528305,32.680721 
	C149.517136,34.345051 149.684692,36.031849 149.460083,37.665707 
	C149.319366,38.689487 148.865555,40.036373 148.094772,40.544899 
	C144.497772,42.917973 135.276932,41.239906 131.480042,37.531136 
M144.863586,28.708490 
	C142.498428,25.396677 139.224075,23.861805 136.076309,26.761051 
	C134.471542,28.239128 133.371994,32.085339 134.193619,33.873375 
	C135.038055,35.711052 138.677704,37.552849 140.779160,37.244701 
	C144.647446,36.677479 146.477478,33.574665 144.863586,28.708490 
z"/>
<path fill="#575F62" opacity="1.000000" stroke="none" 
	d="
M125.420792,40.680595 
	C118.920235,42.235546 114.680061,40.668015 112.412453,36.178909 
	C110.407234,32.209251 111.222122,26.693293 115.338860,23.974108 
	C117.767456,22.369972 121.420227,22.175886 124.507553,22.228130 
	C125.762009,22.249357 126.976913,24.608511 128.209824,25.903885 
	C126.679283,25.926348 125.048134,26.302229 123.638245,25.900875 
	C120.254112,24.937513 117.656685,25.794985 115.957703,28.760178 
	C114.153000,31.909882 115.345520,34.539375 118.007179,36.600258 
	C119.027924,37.390610 120.226944,37.950729 121.381325,38.637539 
	C123.019211,37.627964 124.677490,36.605816 126.261826,35.629250 
	C130.788651,37.959579 126.046951,38.905987 125.420792,40.680595 
z"/>
<path fill="#14B4BC" opacity="1.000000" stroke="none" 
	d="
M73.560791,31.697723 
	C72.562737,22.916258 68.143608,16.394583 60.399288,10.307916 
	C63.143948,10.307916 64.415573,9.992338 65.444176,10.358842 
	C72.415749,12.842906 77.851761,23.391853 75.774612,30.395889 
	C75.581329,31.047646 74.491646,31.433561 73.560791,31.697723 
z"/>
<path fill="#575F62" opacity="1.000000" stroke="none" 
	d="
M96.006020,39.013977 
	C92.740623,38.008076 89.705109,36.968727 89.026970,32.804359 
	C88.264397,28.121592 91.161453,25.092886 94.165497,23.081707 
	C96.679764,21.398424 100.571281,20.003994 103.452759,23.759615 
	C102.897949,24.539593 102.485703,24.926239 101.693451,25.215263 
	C92.549385,26.310400 90.854340,29.941578 95.648178,37.154785 
	C95.969734,37.638630 95.902939,38.380577 96.008850,39.000328 
	C96.000923,38.998177 96.006020,39.013977 96.006020,39.013977 
z"/>
<path fill="#576063" opacity="1.000000" stroke="none" 
	d="
M83.144638,26.449318 
	C83.842125,24.567486 84.539909,23.125948 85.237686,21.684408 
	C85.854225,23.155024 86.906593,24.597813 87.002625,26.101662 
	C87.254158,30.041222 87.225227,34.015015 87.006996,37.958500 
	C86.939766,39.173370 85.901649,40.334511 85.308090,41.520252 
	C84.586357,40.269485 83.345413,39.059925 83.242249,37.760063 
	C82.956276,34.156704 83.144264,30.515724 83.144638,26.449318 
z"/>
<path fill="#575F62" opacity="1.000000" stroke="none" 
	d="
M106.037071,24.892736 
	C110.437569,29.003008 108.925476,34.372570 108.929413,39.355873 
	C108.929817,39.871368 107.017418,40.688828 105.927795,40.817432 
	C104.906044,40.938026 103.798355,40.330563 102.000519,40.012489 
	C101.205612,38.997272 101.138657,38.013042 101.428642,36.979073 
	C106.097473,34.279488 105.870941,30.831631 103.660828,26.658573 
	C104.540543,25.834419 105.288803,25.363577 106.037071,24.892736 
z"/>
<path fill="#F3F4F4" opacity="1.000000" stroke="none" 
	d="
M101.071709,37.028809 
	C101.138657,38.013042 101.205612,38.997272 101.642853,40.127491 
	C99.795242,42.841152 97.731789,43.461388 96.007065,39.405609 
	C96.006020,39.013977 96.000923,38.998177 96.290741,38.780594 
	C98.077606,38.051613 99.574654,37.540211 101.071709,37.028809 
z"/>
<path fill="#EEEEEE" opacity="1.000000" stroke="none" 
	d="
M104.748489,14.182264 
	C106.383362,14.378277 109.239120,12.668478 107.837067,16.783386 
	C106.446457,16.997126 105.711884,17.008583 104.977303,17.020039 
	C104.977303,17.020039 105.001839,17.002325 105.001648,16.656149 
	C104.917137,15.600737 104.832817,14.891500 104.748489,14.182264 
z"/>
<path fill="#B3B5B7" opacity="1.000000" stroke="none" 
	d="
M104.410332,14.172674 
	C104.832817,14.891500 104.917137,15.600737 104.991943,16.669048 
	C103.893150,16.423309 102.803886,15.818497 101.714615,15.213685 
	C102.500465,14.863485 103.286324,14.513285 104.410332,14.172674 
z"/>
<path fill="#F3F4F4" opacity="1.000000" stroke="none" 
	d="
M106.013779,24.626753 
	C105.288803,25.363577 104.540543,25.834419 103.402374,26.622692 
	C102.699471,26.397709 102.386467,25.855299 102.073456,25.312885 
	C102.485703,24.926239 102.897949,24.539593 103.588821,24.062429 
	C104.575127,24.101532 105.282799,24.231152 106.013779,24.626753 
z"/>
<path fill="#B3B5B7" opacity="1.000000" stroke="none" 
	d="
M105.071251,17.332973 
	C105.711884,17.008583 106.446457,16.997126 107.547043,17.000721 
	C106.997101,17.225819 106.081146,17.435862 105.071251,17.332973 
z"/>
<path fill="#F6F7F7" opacity="1.000000" stroke="none" 
	d="
M145.000549,29.048973 
	C146.477478,33.574665 144.647446,36.677479 140.779160,37.244701 
	C138.677704,37.552849 135.038055,35.711052 134.193619,33.873375 
	C133.371994,32.085339 134.471542,28.239128 136.076309,26.761051 
	C139.224075,23.861805 142.498428,25.396677 145.000549,29.048973 
z"/>
<path fill="#FCFDFD" opacity="1.000000" stroke="none" 
	d="
M101.693451,25.215263 
	C102.386467,25.855299 102.699471,26.397709 103.270935,26.976002 
	C105.870941,30.831631 106.097473,34.279488 101.428642,36.979073 
	C99.574654,37.540211 98.077606,38.051613 96.298660,38.782745 
	C95.902939,38.380577 95.969734,37.638630 95.648178,37.154785 
	C90.854340,29.941578 92.549385,26.310400 101.693451,25.215263 
z"/>
</svg>